HIERARCHY
ROOT Hips
{
	OFFSET -3.958830 18.904000 13.208200
	CHANNELS 6 Xposition Yposition Zposition Zrotation Yrotation Xrotation 
	JOINT LHipJoint
	{
		OFFSET 0.000000 0.000000 0.000000
		CHANNELS 3 Zrotation Yrotation Xrotation
		JOINT LeftUpLeg
		{
			OFFSET 1.800000 -1.400000 0.085000
			CHANNELS 3 Zrotation Yrotation Xrotation
			JOINT LeftLeg
			{
				OFFSET 2.215000 -6.000000 0.000000
				CHANNELS 3 Zrotation Yrotation Xrotation
				JOINT LeftFoot
				{
					OFFSET 2.500000 -6.900000 0.000000
					CHANNELS 3 Zrotation Yrotation Xrotation
					JOINT LeftToeBase
					{
						OFFSET 0.200000 -0.500000 1.950000
						CHANNELS 3 Zrotation Yrotation Xrotation
						End Site
						{
							OFFSET 0.000000 0.000000 0.000000
						}
					}
				}
			}
		}
	}
	JOINT RHipJoint
	{
		OFFSET 0.000000 0.000000 0.000000
		CHANNELS 3 Zrotation Yrotation Xrotation
		JOINT RightUpLeg
		{
			OFFSET -1.800000 -1.400000 0.085000
			CHANNELS 3 Zrotation Yrotation Xrotation
			JOINT RightLeg
			{
				OFFSET -2.215000 -6.000000 0.000000
				CHANNELS 3 Zrotation Yrotation Xrotation
				JOINT RightFoot
				{
					OFFSET -2.500000 -6.900000 0.000000
					CHANNELS 3 Zrotation Yrotation Xrotation
					JOINT RightToeBase
					{
						OFFSET -0.200000 -0.500000 1.950000
						CHANNELS 3 Zrotation Yrotation Xrotation
						End Site
						{
							OFFSET 0.000000 0.000000 0.000000
						}
					}
				}
			}
		}
	}
	JOINT LowerBack
	{
		OFFSET 0.000000 0.000000 0.000000
		CHANNELS 3 Zrotation Yrotation Xrotation
		JOINT Spine
		{
			OFFSET -0.087000 1.940000 -0.288900
			CHANNELS 3 Zrotation Yrotation Xrotation
			JOINT Spine1
			{
				OFFSET 0.000000 1.950000 0.060000
				CHANNELS 3 Zrotation Yrotation Xrotation
				JOINT Neck
				{
					OFFSET 0.000000 0.000000 0.000000
					CHANNELS 3 Zrotation Yrotation Xrotation
					JOINT Neck1
					{
						OFFSET 0.000000 1.600000 0.340000
						CHANNELS 3 Zrotation Yrotation Xrotation
						JOINT Head
						{
							OFFSET 0.000000 1.667000 -0.240000
							CHANNELS 3 Zrotation Yrotation Xrotation
							End Site
							{
								OFFSET 0.000000 0.000000 0.000000
							}
						}
					}
				}
				JOINT LeftShoulder
				{
					OFFSET 0.000000 0.000000 0.000000
					CHANNELS 3 Zrotation Yrotation Xrotation
					JOINT LeftArm
					{
						OFFSET 2.700000 1.550000 -0.730000
						CHANNELS 3 Zrotation Yrotation Xrotation
						JOINT LeftForeArm
						{
							OFFSET 5.450000 0.000000 0.000000
							CHANNELS 3 Zrotation Yrotation Xrotation
							JOINT LeftHand
							{
								OFFSET 3.450000 0.000000 0.000000
								CHANNELS 3 Zrotation Yrotation Xrotation
								JOINT LeftHandIndex1
								{
									OFFSET 0.750000 0.000000 0.000000
									CHANNELS 3 Zrotation Yrotation Xrotation
									End Site
									{
										OFFSET 0.000000 0.000000 0.000000
									}
								}
							}
						}
					}
				}
				JOINT RightShoulder
				{
					OFFSET 0.000000 0.000000 0.000000
					CHANNELS 3 Zrotation Yrotation Xrotation
					JOINT RightArm
					{
						OFFSET -2.700000 1.550000 -0.730000
						CHANNELS 3 Zrotation Yrotation Xrotation
						JOINT RightForeArm
						{
							OFFSET -5.450000 0.000000 0.000000
							CHANNELS 3 Zrotation Yrotation Xrotation
							JOINT RightHand
							{
								OFFSET -3.450000 0.000000 0.000000
								CHANNELS 3 Zrotation Yrotation Xrotation
								JOINT RightHandIndex1
								{
									OFFSET -0.750000 0.000000 0.000000
									CHANNELS 3 Zrotation Yrotation Xrotation
									End Site
									{
										OFFSET 0.000000 0.000000 0.000000
									}
								}
							}
						}
					}
				}
			}
		}
	}
}
MOTION
Frames: 4
Frame Time: 0.016667
-2.794250 16.821600 -11.457800 -13.513431 -53.748645 -11.871847 -15.093695 12.085647 3.903373 8.075516 -1.730317 -29.246709 -16.818171 15.494234 36.645471 0.819400 7.809189 1.479247 0.925590 0.868610 0.763310 18.336908 -10.618682 3.551713 0.990141 12.304523 4.418130 10.044645 -18.461780 68.527151 -2.656146 -11.564820 0.589333 0.196320 -0.450540 0.266140 -5.228282 0.187848 -8.024484 20.686338 -3.755954 38.439262 -17.312439 4.384300 1.911239 5.483271 -11.519632 -11.633379 -30.992578 27.591665 43.141894 1.904350 14.320570 -17.814720 -3.636741 16.802269 -1.116959 -42.495212 36.208466 -18.364496 -3.546527 1.283292 -1.947547 -3.404299 2.726520 0.573090 -0.459180 0.653390 0.228400 -8.493536 -4.964729 9.674217 -4.619033 -19.179979 1.052988 -13.372954 0.291669 0.507411 3.137014 -1.307435 0.359080 -0.109670 -0.503420 -0.006020 
-2.789940 16.827380 -11.488940 -13.134212 -53.837951 -11.566881 -15.106676 12.181470 3.949948 7.709285 -2.158486 -29.677771 -16.434786 14.946508 36.031644 0.748516 7.609397 1.566191 0.914700 0.831590 0.780450 18.320234 -10.539823 3.508761 0.563603 12.055829 3.095001 9.492473 -18.409698 69.188501 -2.642826 -11.606990 0.567214 0.203390 -0.452460 0.238470 -5.009253 -0.196980 -8.071364 19.067584 -3.145278 38.890969 -16.141579 4.499252 0.735482 5.287526 -11.330368 -10.933143 -30.309279 26.842974 43.397464 1.213200 14.334910 -17.299300 -4.294064 17.880238 -1.736752 -41.751008 35.340773 -17.729771 -3.234710 0.761670 -1.870045 -3.385349 2.729533 0.583190 -0.459360 0.630380 0.228880 -7.657747 -6.162995 9.284995 -1.619883 -19.429227 0.244845 -15.157132 0.390681 0.555263 3.180448 -1.336747 0.314330 -0.101800 -0.514890 -0.033400 
-2.750720 16.881870 -11.565890 -14.735619 -54.977185 -9.508166 -15.131318 12.425601 3.913131 9.220091 -1.613010 -28.716996 -17.442152 13.915407 31.587410 0.586527 7.015207 1.749663 0.865150 0.760820 0.781480 18.288342 -10.380958 3.497218 1.730725 11.750971 0.929365 7.353017 -16.806106 69.988276 -2.572099 -11.421320 0.609917 0.172270 -0.448040 0.237030 -4.639751 -0.887488 -8.135134 18.195257 -2.080404 40.133916 -14.150836 5.560063 -1.617078 5.316526 -10.666624 -9.639381 -28.513105 26.091577 45.401420 0.330250 14.881420 -17.437470 -6.269609 19.481554 -3.179734 -42.285458 33.013683 -16.939087 -0.208773 -1.546010 -1.455841 -3.428479 2.722849 0.600390 -0.442500 0.612290 0.186310 -6.266327 -8.111916 8.533543 3.973530 -21.247971 -1.477714 -17.774183 3.883345 0.404012 3.144197 -1.382921 0.283950 -0.102920 -0.476440 -0.066140 
-2.663140 16.986390 -11.694430 -15.103897 -55.640920 -8.805895 -15.148234 12.898266 3.734175 8.762951 -1.448994 -26.921267 -16.109511 11.620805 26.515129 0.419302 5.848874 2.174457 0.856800 0.752810 0.779630 18.234364 -10.252388 3.495186 2.346092 11.359950 -1.494251 4.889253 -15.003042 70.962052 -2.526287 -11.205112 0.682050 0.152380 -0.460040 0.217790 -4.108033 -1.873490 -8.118669 15.580206 -0.855865 43.064277 -11.326464 6.450842 -4.700356 5.017111 -10.156427 -8.702810 -28.468754 25.540794 46.833573 0.190050 14.441820 -17.616650 -6.429206 21.501957 -3.992563 -42.002520 30.131547 -16.490431 0.482547 -4.791226 -1.397815 -3.347586 2.775617 0.607720 -0.465890 0.627720 0.204700 -5.640335 -9.875797 7.679268 11.280709 -22.181203 -4.039166 -18.755806 8.329199 0.004962 3.106070 -1.411898 0.284410 -0.094850 -0.501830 -0.056590 
